<?xml version="1.0" standalone="no"?><!DOCTYPE svg PUBLIC "-//W3C//DTD SVG 1.1//EN" "http://www.w3.org/Graphics/SVG/1.1/DTD/svg11.dtd"><svg t="1621414808629" class="icon" viewBox="0 0 1024 1024" version="1.1" xmlns="http://www.w3.org/2000/svg" p-id="2712" xmlns:xlink="http://www.w3.org/1999/xlink" width="200" height="200"><defs><style type="text/css">@font-face { font-weight: 400; font-style: normal; font-family: Circular-Loom; src: url("https://cdn.loom.com/assets/fonts/circular/CircularXXWeb-Book-cd7d2bcec649b1243839a15d5eb8f0a3.woff2") format("woff2"); }
@font-face { font-weight: 500; font-style: normal; font-family: Circular-Loom; src: url("https://cdn.loom.com/assets/fonts/circular/CircularXXWeb-Medium-d74eac43c78bd5852478998ce63dceb3.woff2") format("woff2"); }
@font-face { font-weight: 700; font-style: normal; font-family: Circular-Loom; src: url("https://cdn.loom.com/assets/fonts/circular/CircularXXWeb-Bold-83b8ceaf77f49c7cffa44107561909e4.woff2") format("woff2"); }
@font-face { font-weight: 900; font-style: normal; font-family: Circular-Loom; src: url("https://cdn.loom.com/assets/fonts/circular/CircularXXWeb-Black-bf067ecb8aa777ceb6df7d72226febca.woff2") format("woff2"); }
</style></defs><path d="M238.933 409.6v-68.267h546.134V409.6H238.933z m0 273.067V614.4h546.134v68.267H238.933z m-68.266-409.6v477.866c0 75.298 61.098 136.534 136.055 136.534h410.556c75.093 0 136.055-61.03 136.055-136.534V273.067c0-75.298-61.098-136.534-136.055-136.534H306.722c-75.093 0-136.055 61.03-136.055 136.534z m-136.534 0C34.133 122.197 156.126 0 306.723 0h410.555a272.998 272.998 0 0 1 272.589 273.067v477.866c0 150.87-121.993 273.067-272.59 273.067H306.723A272.998 272.998 0 0 1 34.133 750.933V273.067z" p-id="2713" fill="#000000"></path></svg>